<?xml version="1.0" encoding="UTF-8" standalone="no"?>
<!DOCTYPE svg PUBLIC "-//W3C//DTD SVG 1.1//EN" "http://www.w3.org/Graphics/SVG/1.1/DTD/svg11.dtd">
<svg width="100%" height="100%" viewBox="0 0 50 50" version="1.1" xmlns="http://www.w3.org/2000/svg" xmlns:xlink="http://www.w3.org/1999/xlink" xml:space="preserve" xmlns:serif="http://www.serif.com/" style="fill-rule:evenodd;clip-rule:evenodd;stroke-linejoin:round;stroke-miterlimit:2;">
    <path d="M25,2C24.948,2.001 24.897,2.006 24.846,2.016C12.227,2.101 2,12.361 2,25C2,37.691 12.309,48 25,48C37.691,48 48,37.691 48,25C48,12.363 37.775,2.103 25.158,2.016C25.106,2.006 25.053,2.001 25,2ZM25,4C36.611,4 46,13.389 46,25C46,36.611 36.611,46 25,46C13.389,46 4,36.611 4,25C4,13.389 13.389,4 25,4ZM17,18C15.354,18 14,19.354 14,21C14,22.646 15.354,24 17,24C18.646,24 20,22.646 20,21C20,19.354 18.646,18 17,18ZM33,18C31.354,18 30,19.354 30,21C30,22.646 31.354,24 33,24C34.646,24 36,22.646 36,21C36,19.354 34.646,18 33,18ZM11.957,28.988C11.421,29.006 10.99,29.452 10.99,29.988C10.99,30.202 11.058,30.41 11.186,30.582C11.186,30.582 16.417,38 25,38C33.583,38 38.814,30.582 38.814,30.582C38.936,30.412 39.001,30.209 39.001,30C39.001,29.451 38.549,28.999 38,28.999C37.677,28.999 37.373,29.155 37.186,29.418C37.186,29.418 32.417,36 25,36C17.583,36 12.814,29.418 12.814,29.418C12.621,29.138 12.297,28.976 11.957,28.988Z" style="fill-rule:nonzero;stroke:black;stroke-width:1px;"/>
</svg>
