<?xml version="1.0" encoding="UTF-8" standalone="no"?>
<!DOCTYPE svg PUBLIC "-//W3C//DTD SVG 1.1//EN" "http://www.w3.org/Graphics/SVG/1.1/DTD/svg11.dtd">
<svg width="100%" height="100%" viewBox="0 0 44 45" version="1.1" xmlns="http://www.w3.org/2000/svg" xmlns:xlink="http://www.w3.org/1999/xlink" xml:space="preserve" xmlns:serif="http://www.serif.com/" style="fill-rule:evenodd;clip-rule:evenodd;stroke-linejoin:round;stroke-miterlimit:2;">
    <g transform="matrix(1,0,0,1,0.20625,-2.825)">
        <path d="M24.156,3C23.852,3 23.551,3.063 23.25,3.156C22.645,3.348 22.066,3.707 21.563,4.219L9.813,15.969L3,15.969C1.332,15.969 -0.031,17.332 -0.031,19L-0.031,31C-0.031,32.668 1.332,34.031 3,34.031L9.813,34.031L21.531,45.688C22.648,46.809 24.082,47.301 25.25,46.75C26.426,46.195 27,44.859 27,43.313L27,6.313C27,4.813 26.234,3.566 25.063,3.156C24.77,3.055 24.461,3 24.156,3ZM24.188,5C24.289,5 24.367,5.008 24.438,5.031C24.723,5.129 25,5.383 25,6.313L25,43.313C25,44.379 24.648,44.855 24.406,44.969C24.164,45.082 23.676,45.094 22.906,44.313L10.313,31.719C10.293,31.707 10.27,31.695 10.25,31.688C10.324,31.754 10,31.121 10,30.75L10,19.25C10,18.879 10.336,18.238 10.25,18.313C10.273,18.293 10.293,18.273 10.313,18.25L22.969,5.625C23.438,5.152 23.879,5.004 24.188,5ZM3,18.031L8.188,18.031C8.059,18.414 8,18.832 8,19.25L8,30.75C8,31.168 8.063,31.582 8.188,31.969L3,31.969C2.461,31.969 2.031,31.539 2.031,31L2.031,19C2.031,18.461 2.461,18.031 3,18.031ZM31.906,18.969C31.863,18.977 31.82,18.988 31.781,19C31.406,19.066 31.105,19.34 31,19.703C30.895,20.07 31.004,20.461 31.281,20.719L35.563,25L31.281,29.281C30.883,29.68 30.883,30.32 31.281,30.719C31.68,31.117 32.32,31.117 32.719,30.719L37,26.438L41.281,30.719C41.68,31.117 42.32,31.117 42.719,30.719C43.117,30.32 43.117,29.68 42.719,29.281L38.438,25L42.719,20.719C43.043,20.418 43.129,19.941 42.934,19.547C42.742,19.148 42.309,18.93 41.875,19C41.652,19.023 41.441,19.125 41.281,19.281L37,23.563L32.719,19.281C32.512,19.059 32.211,18.945 31.906,18.969Z" style="fill-rule:nonzero;stroke:black;stroke-width:0.35px;"/>
    </g>
</svg>
