<svg xmlns="http://www.w3.org/2000/svg"  viewBox="0 0 30 30" width="30px" height="30px"><path d="M 21.984375 3.9863281 A 1.0001 1.0001 0 0 0 21 5 L 21 22.585938 L 18.707031 20.292969 A 1.0001 1.0001 0 0 0 17.990234 19.990234 A 1.0001 1.0001 0 0 0 17.292969 21.707031 L 21.205078 25.619141 A 1.0001 1.0001 0 0 0 22.796875 25.617188 L 26.707031 21.707031 A 1.0001 1.0001 0 1 0 25.292969 20.292969 L 23 22.585938 L 23 5 A 1.0001 1.0001 0 0 0 21.984375 3.9863281 z M 6.5878906 4 L 3.5683594 13 L 5.8378906 13 L 6.4199219 11.023438 L 9.3554688 11.023438 L 9.9179688 13 L 12.412109 13 L 9.3867188 4 L 6.5878906 4 z M 7.8417969 6.0273438 L 7.9589844 6.0273438 L 8.9257812 9.3769531 L 6.8554688 9.3769531 L 7.8417969 6.0273438 z M 4.5195312 17 L 4.5195312 18.839844 L 8.6738281 18.839844 L 8.6738281 18.958984 L 4.4511719 24.546875 L 4.4511719 26 L 11.548828 26 L 11.548828 24.160156 L 7.1953125 24.160156 L 7.1953125 24.041016 L 11.417969 18.453125 L 11.417969 17 L 4.5195312 17 z"/></svg>